<svg xmlns="http://www.w3.org/2000/svg" viewBox="0 0 44.8 44.6"><path fill="#CB2027" d="M44.7 0c-1.8 0-16.6 0-22.3.1C10 .1 0 9.9 0 22.3c0 6.1.1 22.3.1 22.3l25.5-.1C36.5 43 44.8 33.7 44.8 22.4c-.1-5.5 0-22.4-.1-22.4z"/><g fill="#FFF"><path d="M34.9 8.3v-.4h-9V30.2c0 3.1-2.8 6.4-2.8 6.4l-.6.7h.9c.8 0 1.7-.2 2.5-.5v.2l.6-.3c.1-.1.2-.1.3-.2.7-.3 1.3-.7 1.9-1.2 4-2.9 6.2-7.3 6.2-12.2V8.3zM23 19.7l.6-.7h-.9c-1.4.1-2.8.3-4.2.8v-4.9c0-3.1 2.8-6.4 2.8-6.4l.6-.7H21c-.8 0-1.7.2-2.5.5l-.6.3c-.1 0-.1.1-.2.1l-.1.1c-.7.3-1.3.7-1.9 1.2-4 2.9-6.2 7.3-6.2 12.2-.1 4-.1 14.8-.1 14.8v.4h9v-8.2c.6-4.7 4.5-9.4 4.6-9.5z"/></g></svg>